<svg width="89" height="97" viewBox="0 0 89 97" fill="none" xmlns="http://www.w3.org/2000/svg">
<path d="M56.3745 17.3517C46.3359 17.3517 41.8185 25.5246 41.8185 35.0805V64H24V32.943C24 14.8369 34.666 0 56.3745 0C78.083 0 89 14.7112 89 32.943V64H71.1815V35.0805C71.1815 25.5246 66.5386 17.3517 56.3745 17.3517Z" fill="white"/>
<path d="M32.627 79.28C42.1161 79.28 46.9257 70.96 46.9257 61.104V31.792H65.384V63.28C65.384 81.84 54.205 96.816 32.627 96.816C11.179 96.816 0 81.84 0 63.28V31.792H18.4583V61.232C18.4583 70.96 23.1379 79.28 32.627 79.28Z" fill="white"/>
</svg>
