<svg width="590" height="124" viewBox="0 0 590 124" fill="none" xmlns="http://www.w3.org/2000/svg">
<path d="M554.8 94.336C535.344 94.336 520.496 79.232 520.496 60.928C520.496 41.216 534.064 27.392 553.776 27.392C560.176 27.392 566.32 29.696 570.928 33.408L571.056 0H589.232V60.928C589.232 80.128 574.64 94.336 554.8 94.336ZM554.8 77.184C564.144 77.184 571.056 69.888 571.056 60.928C571.056 51.968 564.144 44.544 554.8 44.544C545.456 44.544 538.672 51.968 538.672 60.928C538.672 69.888 545.456 77.184 554.8 77.184Z" fill="white"/>
<path d="M486.706 94.208C466.994 94.208 452.146 80.512 452.146 60.288C452.146 41.984 465.458 26.88 485.042 26.88C505.138 26.88 516.786 41.728 516.786 59.008V64.384H469.682C470.962 72.832 477.49 78.464 486.578 78.464C493.49 78.464 499.25 75.136 502.194 69.248L516.146 76.288C510.642 87.68 500.146 94.208 486.706 94.208ZM470.45 54.272H498.738C497.97 47.744 492.594 42.752 484.914 42.752C476.978 42.752 471.73 47.872 470.45 54.272Z" fill="white"/>
<path d="M425.806 0H443.982V92.544H425.806V0Z" fill="white"/>
<path d="M378.464 123.392C363.616 123.392 352.224 116.864 346.464 105.088L361.568 96.896C364.384 102.4 369.632 106.752 378.208 106.752C388.96 106.752 396.256 99.2 396.256 86.784V85.632C392.8 89.984 386.656 93.312 377.696 93.312C359.904 93.312 345.696 79.488 345.696 60.672C345.696 42.368 360.544 27.392 380 27.392C399.84 27.392 414.432 41.6 414.432 60.672V86.272C414.432 108.8 399.072 123.392 378.464 123.392ZM379.744 76.16C388.832 76.16 396 69.376 396 60.288C396 51.2 388.832 44.544 379.744 44.544C370.784 44.544 363.616 51.2 363.616 60.288C363.616 69.376 370.784 76.16 379.744 76.16Z" fill="white"/>
<path d="M306.82 45.056C296.58 45.056 291.972 53.376 291.972 63.104V92.544H273.796V60.928C273.796 42.496 284.676 27.392 306.82 27.392C328.964 27.392 340.1 42.368 340.1 60.928V92.544H321.924V63.104C321.924 53.376 317.188 45.056 306.82 45.056Z" fill="white"/>
<path d="M227.606 94.208C209.174 94.208 196.246 79.104 196.246 60.672C196.246 42.496 211.094 27.264 230.55 27.264C250.39 27.264 264.982 41.6 264.982 60.672V92.544H247.702V85.12C243.222 90.752 236.31 94.208 227.606 94.208ZM230.55 77.184C239.894 77.184 246.806 69.76 246.806 60.8C246.806 51.84 239.894 44.416 230.55 44.416C221.206 44.416 214.422 51.84 214.422 60.8C214.422 69.76 221.206 77.184 230.55 77.184Z" fill="white"/>
<path d="M180.236 94.336C161.932 94.336 152.844 83.328 152.844 67.456V44.544H141.196V29.184H152.844V13.056H171.02V29.184H193.42V44.544H171.02V66.944C171.02 73.984 175.244 78.08 181.9 78.08C185.612 78.08 190.348 76.928 193.42 75.008V91.264C190.22 93.312 184.716 94.336 180.236 94.336Z" fill="white"/>
<path d="M105.52 45.056C95.28 45.056 90.672 53.376 90.672 63.104V92.544H72.496V60.928C72.496 42.496 83.376 27.392 105.52 27.392C127.664 27.392 138.8 42.368 138.8 60.928V92.544H120.624V63.104C120.624 53.376 115.888 45.056 105.52 45.056Z" fill="white"/>
<path d="M32.128 76.672C41.472 76.672 46.208 68.352 46.208 58.496V29.184H64.384V60.672C64.384 79.232 53.376 94.208 32.128 94.208C11.008 94.208 0 79.232 0 60.672V29.184H18.176V58.624C18.176 68.352 22.784 76.672 32.128 76.672Z" fill="white"/>
</svg>
